<svg id="Layer_1" data-name="Layer 1" xmlns="http://www.w3.org/2000/svg" xmlns:xlink="http://www.w3.org/1999/xlink" viewBox="0 0 25 25"><defs><style>.cls-1{fill:url(#linear-gradient);}.cls-2{stroke:#0579a1;stroke-width:0.15px;fill:url(#linear-gradient-2);}.cls-13,.cls-2{stroke-miterlimit:10;}.cls-3{fill:url(#linear-gradient-3);}.cls-4{fill:url(#linear-gradient-4);}.cls-5{fill:url(#linear-gradient-5);}.cls-6{fill:url(#linear-gradient-6);}.cls-7{fill:url(#linear-gradient-7);}.cls-8{fill:url(#linear-gradient-8);}.cls-9{fill:url(#linear-gradient-9);}.cls-10{fill:url(#linear-gradient-10);}.cls-11{fill:url(#linear-gradient-11);}.cls-12{fill:none;stroke:#231f20;stroke-linecap:round;stroke-linejoin:round;stroke-width:0.12px;}.cls-13{stroke:#cd7d29;stroke-width:0.06px;fill:url(#linear-gradient-12);}.cls-14{opacity:0.65;}.cls-15{fill:url(#linear-gradient-13);}.cls-16{fill:url(#linear-gradient-14);}.cls-17{fill:url(#linear-gradient-15);}.cls-18{fill:url(#linear-gradient-16);}.cls-19{fill:url(#linear-gradient-17);}.cls-20{fill:url(#linear-gradient-18);}.cls-21{fill:url(#linear-gradient-19);}.cls-22{fill:url(#linear-gradient-20);}.cls-23{fill:url(#linear-gradient-21);}.cls-24{fill:url(#linear-gradient-22);}.cls-25{fill:url(#linear-gradient-23);}.cls-26{fill:url(#linear-gradient-24);}.cls-27{fill:url(#linear-gradient-25);}.cls-28{fill:url(#linear-gradient-26);}.cls-29{fill:url(#linear-gradient-27);}.cls-30{fill:url(#linear-gradient-28);}.cls-31{fill:url(#linear-gradient-29);}</style><linearGradient id="linear-gradient" x1="12.76" y1="22.94" x2="12.27" y2="1.68" gradientUnits="userSpaceOnUse"><stop offset="0" stop-color="#00abe6"/><stop offset="1" stop-color="#00c2f3"/></linearGradient><linearGradient id="linear-gradient-2" x1="12.23" y1="24.7" x2="12.09" y2="19.11" gradientUnits="userSpaceOnUse"><stop offset="0" stop-color="#0074a5"/><stop offset="0.17" stop-color="#1993c2"/><stop offset="0.41" stop-color="#37b9e6"/><stop offset="0.54" stop-color="#42c7f4"/></linearGradient><linearGradient id="linear-gradient-3" x1="9.74" y1="20.68" x2="12.38" y2="20.68" gradientUnits="userSpaceOnUse"><stop offset="0" stop-color="#fff33b"/><stop offset="0.13" stop-color="#fee72e"/><stop offset="0.37" stop-color="#fed51b"/><stop offset="0.63" stop-color="#fdca10"/><stop offset="0.89" stop-color="#fdc70c"/></linearGradient><linearGradient id="linear-gradient-4" x1="12.16" y1="20.72" x2="13.91" y2="20.72" xlink:href="#linear-gradient-3"/><linearGradient id="linear-gradient-5" x1="10.2" y1="21.21" x2="11.57" y2="21.21" xlink:href="#linear-gradient-3"/><linearGradient id="linear-gradient-6" x1="11.43" y1="21.19" x2="14.03" y2="21.19" xlink:href="#linear-gradient-3"/><linearGradient id="linear-gradient-7" x1="10.51" y1="23.29" x2="12.23" y2="23.29" xlink:href="#linear-gradient-3"/><linearGradient id="linear-gradient-8" x1="12.12" y1="23.37" x2="13.42" y2="23.37" xlink:href="#linear-gradient-3"/><linearGradient id="linear-gradient-9" x1="10.55" y1="23.04" x2="12.32" y2="23.04" xlink:href="#linear-gradient-3"/><linearGradient id="linear-gradient-10" x1="12.2" y1="23.13" x2="13.5" y2="23.13" xlink:href="#linear-gradient-3"/><linearGradient id="linear-gradient-11" x1="9.58" y1="22.06" x2="14.73" y2="22.06" xlink:href="#linear-gradient-3"/><linearGradient id="linear-gradient-12" x1="11.2" y1="19.05" x2="13.33" y2="19.05" gradientUnits="userSpaceOnUse"><stop offset="0" stop-color="#fff33b"/><stop offset="0.04" stop-color="#fee72e"/><stop offset="0.12" stop-color="#fed51b"/><stop offset="0.2" stop-color="#fdca10"/><stop offset="0.28" stop-color="#fdc70c"/><stop offset="0.87" stop-color="#f3903f"/></linearGradient><linearGradient id="linear-gradient-13" x1="14.47" y1="21.08" x2="11.09" y2="24.3" gradientUnits="userSpaceOnUse"><stop offset="0" stop-color="#fffdeb"/><stop offset="1" stop-color="#fff" stop-opacity="0"/></linearGradient><linearGradient id="linear-gradient-14" x1="14.56" y1="21.92" x2="11.79" y2="24.56" xlink:href="#linear-gradient-13"/><linearGradient id="linear-gradient-15" x1="13.27" y1="19.22" x2="9.75" y2="22.57" xlink:href="#linear-gradient-13"/><linearGradient id="linear-gradient-16" x1="13.07" y1="18.45" x2="9.9" y2="21.47" xlink:href="#linear-gradient-13"/><linearGradient id="linear-gradient-17" x1="9.78" y1="21.34" x2="9.69" y2="21.42" xlink:href="#linear-gradient-13"/><linearGradient id="linear-gradient-18" x1="6.79" y1="22.13" x2="6.75" y2="20.47" xlink:href="#linear-gradient"/><linearGradient id="linear-gradient-19" x1="2.5" y1="18.96" x2="2.46" y2="17.3" gradientTransform="translate(11.4 37.78) rotate(180)" xlink:href="#linear-gradient"/><linearGradient id="linear-gradient-20" x1="4.52" y1="20.83" x2="4.48" y2="19.31" xlink:href="#linear-gradient"/><linearGradient id="linear-gradient-21" x1="1.72" y1="21.47" x2="1.69" y2="19.95" gradientTransform="translate(8.16 39.28) rotate(180)" xlink:href="#linear-gradient"/><linearGradient id="linear-gradient-22" x1="3.05" y1="19.06" x2="3.02" y2="17.74" xlink:href="#linear-gradient"/><linearGradient id="linear-gradient-23" x1="0.46" y1="23.25" x2="0.42" y2="21.92" gradientTransform="translate(5.18 39.67) rotate(180)" xlink:href="#linear-gradient"/><linearGradient id="linear-gradient-24" x1="-6" y1="22.32" x2="-6.04" y2="20.65" gradientTransform="matrix(-1, 0, 0, 1, 12.21, 0)" xlink:href="#linear-gradient"/><linearGradient id="linear-gradient-25" x1="4.27" y1="31.63" x2="4.23" y2="29.97" gradientTransform="matrix(0, 1, 1, 0, -14.67, 15.64)" xlink:href="#linear-gradient"/><linearGradient id="linear-gradient-26" x1="-8.27" y1="21.01" x2="-8.31" y2="19.5" gradientTransform="matrix(-1, 0, 0, 1, 12.21, 0)" xlink:href="#linear-gradient"/><linearGradient id="linear-gradient-27" x1="3.5" y1="34.13" x2="3.46" y2="32.62" gradientTransform="matrix(0, 1, 1, 0, -14.79, 15.32)" xlink:href="#linear-gradient"/><linearGradient id="linear-gradient-28" x1="-9.74" y1="19.25" x2="-9.77" y2="17.92" gradientTransform="matrix(-1, 0, 0, 1, 12.21, 0)" xlink:href="#linear-gradient"/><linearGradient id="linear-gradient-29" x1="2.23" y1="35.92" x2="2.2" y2="34.59" gradientTransform="matrix(0, 1, 1, 0, -14.96, 15.1)" xlink:href="#linear-gradient"/></defs><path class="cls-1" d="M12.5.63a11,11,0,1,0,11,11A11,11,0,0,0,12.5.63Zm0,21A10.36,10.36,0,1,1,22.86,11.3,10.35,10.35,0,0,1,12.5,21.65Z"/><ellipse class="cls-2" cx="12.16" cy="21.87" rx="2.43" ry="2.5"/><path class="cls-3" d="M9.91,22a16.9,16.9,0,0,1,2.48-2.45c.12-.09-.05-.26-.17-.16a16,16,0,0,0-2.48,2.45c-.09.11.08.28.17.16Z"/><path class="cls-4" d="M12.16,19.43a20.52,20.52,0,0,1,1.54,2.69c.07.14.28,0,.21-.12a19.3,19.3,0,0,0-1.54-2.69c-.09-.13-.3,0-.21.12Z"/><path class="cls-5" d="M10.2,20.21a5.61,5.61,0,0,0,.52,1c.21.35.42.71.64,1.06.08.13.3,0,.21-.13l-.61-1a5.76,5.76,0,0,1-.52-1c0-.15-.3-.09-.24.07Z"/><path class="cls-6" d="M11.6,22.3c.83-.67,1.64-1.35,2.44-2,.12-.1-.06-.28-.18-.18-.8.7-1.61,1.37-2.44,2-.12.1.06.28.18.18Z"/><path class="cls-7" d="M10.51,22.31a4.48,4.48,0,0,0,1.59,2.08c.12.09.24-.12.12-.2a4.2,4.2,0,0,1-1.48-2c-.05-.14-.28-.08-.23.07Z"/><path class="cls-8" d="M12.29,24.43a4.49,4.49,0,0,0,1.13-2c0-.16-.2-.22-.24-.07a4.18,4.18,0,0,1-1.06,1.89c-.11.12.06.29.17.18Z"/><path class="cls-9" d="M10.73,23.77a5.64,5.64,0,0,1,1.59-1.28c.14-.07,0-.28-.12-.2a5.65,5.65,0,0,0-1.64,1.32c-.1.11.07.28.17.16Z"/><path class="cls-10" d="M12.21,22.43A9.77,9.77,0,0,1,13.29,24c.08.13.29,0,.21-.12a10.44,10.44,0,0,0-1.12-1.6c-.1-.11-.27,0-.17.17Z"/><path class="cls-11" d="M14.5,22.3c-1.89,1.12-4.69,0-4.69,0s-.23-.22-.23-.48h0c0-.27.1-.48.23-.48s2.57,1.46,4.69,0c.12-.09.23.21.23.48h0A.52.52,0,0,1,14.5,22.3Z"/><path class="cls-12" d="M9.63,21.67a5,5,0,0,0,5,.06"/><path class="cls-13" d="M11.2,18.65l.34.84s.42-.29,1.45.07l.34-.9-.6.26-.56-.39-.45.37Z"/><g class="cls-14"><path class="cls-15" d="M11.09,24.11c1.19-.75,2.38-1.51,3.63-2.17a.49.49,0,0,0,0-.12c0-.24-.09-.51-.2-.49a1.25,1.25,0,0,0-.07-.26q-2,1.28-3.93,2.65A2.35,2.35,0,0,0,11.09,24.11Z"/><path class="cls-16" d="M11.53,24.28l.35.07c.89-.59,1.77-1.21,2.63-1.84a2.38,2.38,0,0,0,.05-.26.38.38,0,0,0,.13-.19C13.66,22.83,12.6,23.57,11.53,24.28Z"/><path class="cls-17" d="M13,19.52l.16-.41c-.46.28-.9.58-1.33.89a21.73,21.73,0,0,0-2.24,1.71.37.37,0,0,0,0,.11c0,.23.08.43.19.47a1.8,1.8,0,0,0,.1.4,31.19,31.19,0,0,1,3.77-2.8A2.54,2.54,0,0,0,13,19.52Z"/><path class="cls-18" d="M13.29,18.68l-.56.24,0,0c-.94.66-1.87,1.33-2.77,2a2.3,2.3,0,0,0-.14.42c1.13-.88,2.28-1.72,3.46-2.52A.13.13,0,0,0,13.29,18.68Z"/><path class="cls-19" d="M9.78,21.34a.24.24,0,0,0-.1.08Z"/></g><ellipse class="cls-20" cx="6.77" cy="21.25" rx="1.28" ry="0.86"/><ellipse class="cls-21" cx="8.92" cy="19.7" rx="1.28" ry="0.86" transform="translate(-11.74 26.1) rotate(-82.85)"/><ellipse class="cls-22" cx="4.5" cy="20.02" rx="1.17" ry="0.78"/><ellipse class="cls-23" cx="6.46" cy="18.61" rx="1.17" ry="0.78" transform="translate(-12.82 22.7) rotate(-82.85)"/><ellipse class="cls-24" cx="3.03" cy="18.36" rx="1.02" ry="0.69"/><ellipse class="cls-25" cx="4.75" cy="17.13" rx="1.02" ry="0.69" transform="translate(-12.84 19.7) rotate(-82.85)"/><ellipse class="cls-26" cx="18.23" cy="21.43" rx="1.28" ry="0.86"/><ellipse class="cls-27" cx="16.07" cy="19.89" rx="0.86" ry="1.28" transform="translate(-2.35 2.16) rotate(-7.15)"/><ellipse class="cls-28" cx="20.5" cy="20.2" rx="1.17" ry="0.78"/><ellipse class="cls-29" cx="18.54" cy="18.8" rx="0.78" ry="1.17" transform="translate(-2.2 2.45) rotate(-7.15)"/><ellipse class="cls-30" cx="21.96" cy="18.54" rx="1.02" ry="0.69"/><ellipse class="cls-31" cx="20.25" cy="17.31" rx="0.69" ry="1.02" transform="translate(-2 2.66) rotate(-7.15)"/></svg>