<svg id="Layer_1" data-name="Layer 1" xmlns="http://www.w3.org/2000/svg" xmlns:xlink="http://www.w3.org/1999/xlink" viewBox="0 0 25 25"><defs><style>.cls-1{fill:url(#linear-gradient);}.cls-2{fill:url(#linear-gradient-2);}.cls-3{fill:url(#linear-gradient-3);}.cls-4{fill:url(#linear-gradient-4);}.cls-5{fill:url(#linear-gradient-5);}.cls-6{fill:url(#linear-gradient-6);}.cls-7{fill:url(#linear-gradient-7);}.cls-8{fill:url(#linear-gradient-8);}.cls-9{fill:url(#linear-gradient-9);}.cls-10{fill:url(#linear-gradient-10);}.cls-11{fill:url(#linear-gradient-11);}.cls-12{fill:url(#linear-gradient-12);}.cls-13{fill:url(#linear-gradient-13);}.cls-14{stroke:#fbac26;stroke-width:0.27px;fill:url(#linear-gradient-14);}.cls-14,.cls-15,.cls-16{stroke-miterlimit:10;}.cls-15,.cls-16{stroke:#27aae1;stroke-width:0.16px;}.cls-15{fill:url(#linear-gradient-15);}.cls-16{fill:url(#linear-gradient-16);}.cls-17,.cls-18,.cls-19,.cls-20{opacity:0.31;}.cls-17{fill:url(#linear-gradient-17);}.cls-18{fill:url(#linear-gradient-18);}.cls-19{fill:url(#linear-gradient-19);}.cls-20{fill:url(#linear-gradient-20);}</style><linearGradient id="linear-gradient" x1="12.76" y1="22.9" x2="12.27" y2="1.64" gradientUnits="userSpaceOnUse"><stop offset="0" stop-color="#00abe6"/><stop offset="1" stop-color="#00c2f3"/></linearGradient><linearGradient id="linear-gradient-2" x1="6.79" y1="22.1" x2="6.75" y2="20.43" xlink:href="#linear-gradient"/><linearGradient id="linear-gradient-3" x1="2.46" y1="18.97" x2="2.42" y2="17.3" gradientTransform="translate(11.36 37.75) rotate(180)" xlink:href="#linear-gradient"/><linearGradient id="linear-gradient-4" x1="4.52" y1="20.79" x2="4.48" y2="19.27" xlink:href="#linear-gradient"/><linearGradient id="linear-gradient-5" x1="1.68" y1="21.47" x2="1.65" y2="19.96" gradientTransform="translate(8.12 39.24) rotate(180)" xlink:href="#linear-gradient"/><linearGradient id="linear-gradient-6" x1="3.05" y1="19.02" x2="3.02" y2="17.7" xlink:href="#linear-gradient"/><linearGradient id="linear-gradient-7" x1="0.42" y1="23.25" x2="0.39" y2="21.93" gradientTransform="translate(5.15 39.64) rotate(180)" xlink:href="#linear-gradient"/><linearGradient id="linear-gradient-8" x1="-6" y1="22.28" x2="-6.04" y2="20.62" gradientTransform="matrix(-1, 0, 0, 1, 12.21, 0)" xlink:href="#linear-gradient"/><linearGradient id="linear-gradient-9" x1="4.23" y1="31.64" x2="4.19" y2="29.97" gradientTransform="matrix(0, 1, 1, 0, -14.68, 15.64)" xlink:href="#linear-gradient"/><linearGradient id="linear-gradient-10" x1="-8.27" y1="20.97" x2="-8.31" y2="19.46" gradientTransform="matrix(-1, 0, 0, 1, 12.21, 0)" xlink:href="#linear-gradient"/><linearGradient id="linear-gradient-11" x1="3.46" y1="34.14" x2="3.42" y2="32.63" gradientTransform="matrix(0, 1, 1, 0, -14.8, 15.32)" xlink:href="#linear-gradient"/><linearGradient id="linear-gradient-12" x1="-9.74" y1="19.21" x2="-9.77" y2="17.88" gradientTransform="matrix(-1, 0, 0, 1, 12.21, 0)" xlink:href="#linear-gradient"/><linearGradient id="linear-gradient-13" x1="2.19" y1="35.92" x2="2.16" y2="34.6" gradientTransform="matrix(0, 1, 1, 0, -14.97, 15.09)" xlink:href="#linear-gradient"/><linearGradient id="linear-gradient-14" x1="11.04" y1="19.33" x2="14.46" y2="26.04" gradientUnits="userSpaceOnUse"><stop offset="0" stop-color="#fff33b"/><stop offset="0.04" stop-color="#fee72e"/><stop offset="0.12" stop-color="#fed51b"/><stop offset="0.2" stop-color="#fdca10"/><stop offset="0.28" stop-color="#fdc70c"/><stop offset="0.87" stop-color="#f3903f"/></linearGradient><linearGradient id="linear-gradient-15" x1="9.22" y1="19.18" x2="11.68" y2="25.34" gradientTransform="translate(-2.22 3.05) rotate(-13.6)" gradientUnits="userSpaceOnUse"><stop offset="0" stop-color="#0074a5"/><stop offset="0.17" stop-color="#1993c2"/><stop offset="0.41" stop-color="#37b9e6"/><stop offset="0.54" stop-color="#42c7f4"/></linearGradient><linearGradient id="linear-gradient-16" x1="7.09" y1="27.36" x2="10.01" y2="22.72" xlink:href="#linear-gradient-15"/><linearGradient id="linear-gradient-17" x1="11.3" y1="20.82" x2="12.22" y2="22.63" gradientUnits="userSpaceOnUse"><stop offset="0" stop-color="#fffdeb"/><stop offset="1" stop-color="#fff" stop-opacity="0"/></linearGradient><linearGradient id="linear-gradient-18" x1="10.92" y1="21.42" x2="12.03" y2="23.59" xlink:href="#linear-gradient-17"/><linearGradient id="linear-gradient-19" x1="13.33" y1="20.2" x2="14.44" y2="22.37" xlink:href="#linear-gradient-17"/><linearGradient id="linear-gradient-20" x1="13.55" y1="22.53" x2="13.96" y2="23.33" xlink:href="#linear-gradient-17"/></defs><path class="cls-1" d="M12.5.59a11,11,0,1,0,11,11A11,11,0,0,0,12.5.59Zm0,21A10.36,10.36,0,1,1,22.86,11.26,10.36,10.36,0,0,1,12.5,21.62Z"/><ellipse class="cls-2" cx="6.77" cy="21.21" rx="1.28" ry="0.86"/><ellipse class="cls-3" cx="8.92" cy="19.66" rx="1.28" ry="0.86" transform="translate(-11.7 26.07) rotate(-82.85)"/><ellipse class="cls-4" cx="4.5" cy="19.98" rx="1.17" ry="0.78"/><ellipse class="cls-5" cx="6.46" cy="18.58" rx="1.17" ry="0.78" transform="translate(-12.78 22.67) rotate(-82.85)"/><ellipse class="cls-6" cx="3.03" cy="18.32" rx="1.02" ry="0.69"/><ellipse class="cls-7" cx="4.75" cy="17.09" rx="1.02" ry="0.69" transform="translate(-12.8 19.67) rotate(-82.85)"/><ellipse class="cls-8" cx="18.23" cy="21.4" rx="1.28" ry="0.86"/><ellipse class="cls-9" cx="16.07" cy="19.85" rx="0.86" ry="1.28" transform="translate(-2.35 2.16) rotate(-7.15)"/><ellipse class="cls-10" cx="20.5" cy="20.17" rx="1.17" ry="0.78"/><ellipse class="cls-11" cx="18.54" cy="18.76" rx="0.78" ry="1.17" transform="translate(-2.19 2.45) rotate(-7.15)"/><ellipse class="cls-12" cx="21.96" cy="18.5" rx="1.02" ry="0.69"/><ellipse class="cls-13" cx="20.25" cy="17.27" rx="0.69" ry="1.02" transform="translate(-1.99 2.66) rotate(-7.15)"/><ellipse class="cls-14" cx="12.25" cy="21.71" rx="2.8" ry="2.69"/><path class="cls-15" d="M14.49,19.44a.37.37,0,0,0-.24.46.46.46,0,0,0,.13.21.14.14,0,0,0-.12,0,1.5,1.5,0,0,1-2.44-.25.46.46,0,0,0,.25-.52.46.46,0,1,0-.9.22.45.45,0,0,0,.37.34v0a1.87,1.87,0,0,1-1.65,1.56.28.28,0,0,0,0-.2.38.38,0,0,0-.47-.25.36.36,0,1,0,.17.69l0,0a.25.25,0,0,0,0,.07,7.7,7.7,0,0,1,.87,1.39.16.16,0,0,0,.28,0,2.9,2.9,0,0,1,3.42-1,.16.16,0,0,0,.21-.18,8.24,8.24,0,0,1,.06-1.78.12.12,0,0,0,0-.1.33.33,0,0,0,.17,0,.36.36,0,0,0,.24-.45A.37.37,0,0,0,14.49,19.44Z"/><path class="cls-16" d="M10.92,23.6a2.8,2.8,0,0,1,3.42-1l0,.8-3,.88Z"/><path class="cls-17" d="M13.18,20.66a1.45,1.45,0,0,1-.92-.33c-.27.3-.54.61-.8.92-.42.43-.83.86-1.23,1.31.14.24.27.47.35.63a.16.16,0,0,0,.15.09l0,.09L13,20.88Z"/><path class="cls-18" d="M12.34,22.45H12.2c-.39.45-.79.9-1.19,1.34l.15.24c.47-.52.95-1.06,1.41-1.59h-.16A.08.08,0,0,1,12.34,22.45Z"/><path class="cls-19" d="M14.74,19.48c-.14.17-.28.35-.43.52l.09.11a.14.14,0,0,0-.12,0l-.25.21c-.51.61-1,1.21-1.55,1.81l.42-.07c.27-.31.54-.61.8-.92l1.22-1.48A.42.42,0,0,0,14.74,19.48Z"/><path class="cls-20" d="M14.18,22.47h0l-.85,1.11.45-.15.6-.78v-.11l-.13,0A.1.1,0,0,1,14.18,22.47Z"/></svg>