<svg id="Layer_1" data-name="Layer 1" xmlns="http://www.w3.org/2000/svg" xmlns:xlink="http://www.w3.org/1999/xlink" viewBox="0 0 25 25"><defs><style>.cls-1{fill:url(#linear-gradient);}.cls-2{fill:url(#linear-gradient-2);}.cls-3{fill:url(#linear-gradient-3);}.cls-4{fill:url(#linear-gradient-4);}.cls-5{fill:url(#linear-gradient-5);}.cls-6{fill:url(#linear-gradient-6);}.cls-7{fill:url(#linear-gradient-7);}.cls-8{fill:url(#linear-gradient-8);}.cls-9{fill:url(#linear-gradient-9);}.cls-10{fill:url(#linear-gradient-10);}.cls-11{fill:url(#linear-gradient-11);}.cls-12{fill:url(#linear-gradient-12);}.cls-13{fill:url(#linear-gradient-13);}.cls-14{stroke:#be1e2d;stroke-width:0.2px;fill:url(#linear-gradient-14);}.cls-14,.cls-16,.cls-17{stroke-miterlimit:10;}.cls-15{fill:#0074a5;}.cls-16,.cls-17{stroke:#27aae1;stroke-width:0.16px;}.cls-16{fill:url(#linear-gradient-15);}.cls-17{fill:url(#linear-gradient-16);}.cls-18,.cls-19,.cls-20,.cls-21{opacity:0.31;}.cls-18{fill:url(#linear-gradient-17);}.cls-19{fill:url(#linear-gradient-18);}.cls-20{fill:url(#linear-gradient-19);}.cls-21{fill:url(#linear-gradient-20);}.cls-22{opacity:0.89;}.cls-23{fill:#07374c;}</style><linearGradient id="linear-gradient" x1="12.76" y1="22.85" x2="12.27" y2="1.59" gradientUnits="userSpaceOnUse"><stop offset="0" stop-color="#00abe6"/><stop offset="1" stop-color="#00c2f3"/></linearGradient><linearGradient id="linear-gradient-2" x1="6.79" y1="22.05" x2="6.75" y2="20.38" xlink:href="#linear-gradient"/><linearGradient id="linear-gradient-3" x1="2.41" y1="18.98" x2="2.37" y2="17.31" gradientTransform="translate(11.31 37.71) rotate(180)" xlink:href="#linear-gradient"/><linearGradient id="linear-gradient-4" x1="4.52" y1="20.74" x2="4.48" y2="19.22" xlink:href="#linear-gradient"/><linearGradient id="linear-gradient-5" x1="1.64" y1="21.48" x2="1.6" y2="19.96" gradientTransform="translate(8.07 39.2) rotate(180)" xlink:href="#linear-gradient"/><linearGradient id="linear-gradient-6" x1="3.05" y1="18.97" x2="3.02" y2="17.65" xlink:href="#linear-gradient"/><linearGradient id="linear-gradient-7" x1="0.37" y1="23.26" x2="0.34" y2="21.94" gradientTransform="translate(5.1 39.59) rotate(180)" xlink:href="#linear-gradient"/><linearGradient id="linear-gradient-8" x1="-6" y1="22.23" x2="-6.04" y2="20.57" gradientTransform="matrix(-1, 0, 0, 1, 12.21, 0)" xlink:href="#linear-gradient"/><linearGradient id="linear-gradient-9" x1="4.18" y1="31.64" x2="4.15" y2="29.98" gradientTransform="matrix(0, 1, 1, 0, -14.69, 15.63)" xlink:href="#linear-gradient"/><linearGradient id="linear-gradient-10" x1="-8.27" y1="20.92" x2="-8.31" y2="19.41" gradientTransform="matrix(-1, 0, 0, 1, 12.21, 0)" xlink:href="#linear-gradient"/><linearGradient id="linear-gradient-11" x1="3.41" y1="34.15" x2="3.37" y2="32.63" gradientTransform="matrix(0, 1, 1, 0, -14.8, 15.32)" xlink:href="#linear-gradient"/><linearGradient id="linear-gradient-12" x1="-9.74" y1="19.16" x2="-9.77" y2="17.83" gradientTransform="matrix(-1, 0, 0, 1, 12.21, 0)" xlink:href="#linear-gradient"/><linearGradient id="linear-gradient-13" x1="2.14" y1="35.93" x2="2.11" y2="34.6" gradientTransform="matrix(0, 1, 1, 0, -14.97, 15.09)" xlink:href="#linear-gradient"/><linearGradient id="linear-gradient-14" x1="9.55" y1="21.57" x2="15.33" y2="21.57" gradientUnits="userSpaceOnUse"><stop offset="0" stop-color="#f04e36"/><stop offset="0.01" stop-color="#ee4d35"/><stop offset="0.26" stop-color="#b13119"/><stop offset="0.44" stop-color="#8b1f07"/><stop offset="0.54" stop-color="#7d1800"/></linearGradient><linearGradient id="linear-gradient-15" x1="9.44" y1="18.91" x2="11.94" y2="25.17" gradientTransform="translate(-2.22 3.05) rotate(-13.6)" gradientUnits="userSpaceOnUse"><stop offset="0" stop-color="#0074a5"/><stop offset="0.17" stop-color="#1993c2"/><stop offset="0.41" stop-color="#37b9e6"/><stop offset="0.54" stop-color="#42c7f4"/></linearGradient><linearGradient id="linear-gradient-16" x1="7.28" y1="27.23" x2="10.24" y2="22.5" xlink:href="#linear-gradient-15"/><linearGradient id="linear-gradient-17" x1="11.45" y1="20.52" x2="12.39" y2="22.37" gradientUnits="userSpaceOnUse"><stop offset="0" stop-color="#fffdeb"/><stop offset="1" stop-color="#fff" stop-opacity="0"/></linearGradient><linearGradient id="linear-gradient-18" x1="11.07" y1="21.13" x2="12.19" y2="23.34" xlink:href="#linear-gradient-17"/><linearGradient id="linear-gradient-19" x1="13.51" y1="19.89" x2="14.64" y2="22.1" xlink:href="#linear-gradient-17"/><linearGradient id="linear-gradient-20" x1="13.74" y1="22.26" x2="14.16" y2="23.08" xlink:href="#linear-gradient-17"/></defs><path class="cls-1" d="M12.5.55a11,11,0,1,0,11,11A11,11,0,0,0,12.5.55Zm0,21A10.36,10.36,0,1,1,22.86,11.21,10.36,10.36,0,0,1,12.5,21.57Z"/><ellipse class="cls-2" cx="6.77" cy="21.16" rx="1.28" ry="0.86"/><ellipse class="cls-3" cx="8.92" cy="19.61" rx="1.28" ry="0.86" transform="translate(-11.65 26.03) rotate(-82.85)"/><ellipse class="cls-4" cx="4.5" cy="19.93" rx="1.17" ry="0.78"/><ellipse class="cls-5" cx="6.46" cy="18.53" rx="1.17" ry="0.78" transform="translate(-12.73 22.63) rotate(-82.85)"/><ellipse class="cls-6" cx="3.03" cy="18.27" rx="1.02" ry="0.69"/><ellipse class="cls-7" cx="4.75" cy="17.04" rx="1.02" ry="0.69" transform="translate(-12.75 19.62) rotate(-82.85)"/><ellipse class="cls-8" cx="18.23" cy="21.35" rx="1.28" ry="0.86"/><ellipse class="cls-9" cx="16.07" cy="19.8" rx="0.86" ry="1.28" transform="translate(-2.34 2.16) rotate(-7.15)"/><ellipse class="cls-10" cx="20.5" cy="20.12" rx="1.17" ry="0.78"/><ellipse class="cls-11" cx="18.54" cy="18.71" rx="0.78" ry="1.17" transform="translate(-2.19 2.45) rotate(-7.15)"/><ellipse class="cls-12" cx="21.96" cy="18.45" rx="1.02" ry="0.69"/><ellipse class="cls-13" cx="20.25" cy="17.22" rx="0.69" ry="1.02" transform="translate(-1.99 2.66) rotate(-7.15)"/><circle class="cls-14" cx="12.44" cy="21.57" r="2.89"/><polygon class="cls-15" points="10.13 21.66 11.3 23.8 14.56 22.57 14.65 20.85 10.13 21.66"/><path class="cls-16" d="M14.69,19.12a.37.37,0,0,0-.24.46.45.45,0,0,0,.13.22.14.14,0,0,0-.12,0A1.52,1.52,0,0,1,12,19.57a.46.46,0,0,0,.25-.53.47.47,0,0,0-.57-.35.47.47,0,0,0,0,.93s0,0,0,0A1.9,1.9,0,0,1,10,21.23a.39.39,0,1,0-.76,0,.38.38,0,0,0,.47.26l0,0a.25.25,0,0,0,0,.07,8.67,8.67,0,0,1,.89,1.42A.16.16,0,0,0,11,23a2.94,2.94,0,0,1,3.48-1,.18.18,0,0,0,.22-.19,7.3,7.3,0,0,1,.06-1.8.2.2,0,0,0,0-.11.25.25,0,0,0,.17,0,.35.35,0,0,0,.24-.46A.37.37,0,0,0,14.69,19.12Z"/><path class="cls-17" d="M11.07,23.35a2.83,2.83,0,0,1,3.47-1.05l0,.82-3.1.89Z"/><path class="cls-18" d="M13.36,20.36a1.41,1.41,0,0,1-.93-.34c-.28.31-.55.63-.82.94-.43.44-.85.88-1.25,1.33l.36.65a.16.16,0,0,0,.15.09l.05.09,2.23-2.54Z"/><path class="cls-19" d="M12.51,22.18h-.15l-1.2,1.36.14.25q.73-.8,1.44-1.62h-.17A.07.07,0,0,1,12.51,22.18Z"/><path class="cls-20" d="M15,19.16c-.14.18-.29.35-.44.53l.09.11a.14.14,0,0,0-.12,0l-.25.21c-.52.62-1.05,1.24-1.58,1.85l.43-.07.81-.95c.42-.49.83-1,1.24-1.5A.42.42,0,0,0,15,19.16Z"/><path class="cls-21" d="M14.37,22.21h0l-.87,1.13.46-.15c.21-.26.41-.53.61-.79v-.12l-.13,0Z"/><path class="cls-15" d="M13.51,22.62l-.64-.06-.06,0-.45.47s-.11,0-.12,0l-.1-.6a.07.07,0,0,0,0-.05l-.59-.23s0-.08,0-.11l.59-.31a.05.05,0,0,0,0-.05l.09-.61a.08.08,0,0,1,.12,0l.46.41a.06.06,0,0,0,.06,0l.64-.15c.06,0,.1,0,.07.09l-.3.56a.06.06,0,0,0,0,.06l.31.52S13.57,22.63,13.51,22.62Z"/><g class="cls-22"><path class="cls-23" d="M12.1,21.73a.05.05,0,0,0,0-.05l.09-.6s-.06,0-.06.06l-.09.61Z"/><path class="cls-23" d="M12.24,23l-.1-.6a.07.07,0,0,0,0-.05l-.59-.23a0,0,0,0,1,0-.06l0,0a.06.06,0,0,0,0,.11l.59.23s0,0,0,0l.1.6a.07.07,0,0,0,.11,0l.06-.07A.07.07,0,0,1,12.24,23Z"/><path class="cls-23" d="M13.51,22.62l-.64-.06-.06,0-.06.07a0,0,0,0,1,.05,0l.65.06a.07.07,0,0,0,.08-.07Z"/></g></svg>