<svg id="Layer_1" data-name="Layer 1" xmlns="http://www.w3.org/2000/svg" xmlns:xlink="http://www.w3.org/1999/xlink" viewBox="0 0 25 25"><defs><style>.cls-1{stroke:#be1e2d;stroke-width:0.57px;fill:url(#linear-gradient);}.cls-1,.cls-3,.cls-4{stroke-miterlimit:10;}.cls-2{fill:#0074a5;}.cls-3,.cls-4{stroke:#27aae1;stroke-width:0.58px;}.cls-3{fill:url(#linear-gradient-2);}.cls-4{fill:url(#linear-gradient-3);}.cls-5,.cls-6,.cls-7,.cls-8{opacity:0.31;}.cls-5{fill:url(#linear-gradient-4);}.cls-6{fill:url(#linear-gradient-5);}.cls-7{fill:url(#linear-gradient-6);}.cls-8{fill:url(#linear-gradient-7);}.cls-9{opacity:0.89;}.cls-10{fill:#07374c;}</style><linearGradient id="linear-gradient" x1="4.95" y1="12.52" x2="21.24" y2="12.52" gradientUnits="userSpaceOnUse"><stop offset="0" stop-color="#f04e36"/><stop offset="0.01" stop-color="#ee4d35"/><stop offset="0.26" stop-color="#b13119"/><stop offset="0.44" stop-color="#8b1f07"/><stop offset="0.54" stop-color="#7d1800"/></linearGradient><linearGradient id="linear-gradient-2" x1="11.18" y1="4.27" x2="20.3" y2="27.17" gradientTransform="translate(-2.22 3.05) rotate(-13.6)" gradientUnits="userSpaceOnUse"><stop offset="0" stop-color="#0074a5"/><stop offset="0.17" stop-color="#1993c2"/><stop offset="0.41" stop-color="#37b9e6"/><stop offset="0.54" stop-color="#42c7f4"/></linearGradient><linearGradient id="linear-gradient-3" x1="3.25" y1="34.7" x2="14.11" y2="17.42" xlink:href="#linear-gradient-2"/><linearGradient id="linear-gradient-4" x1="9.79" y1="9.36" x2="13.24" y2="16.12" gradientUnits="userSpaceOnUse"><stop offset="0" stop-color="#fffdeb"/><stop offset="1" stop-color="#fff" stop-opacity="0"/></linearGradient><linearGradient id="linear-gradient-5" x1="8.4" y1="11.6" x2="12.52" y2="19.69" xlink:href="#linear-gradient-4"/><linearGradient id="linear-gradient-6" x1="17.35" y1="7.06" x2="21.48" y2="15.16" xlink:href="#linear-gradient-4"/><linearGradient id="linear-gradient-7" x1="18.18" y1="15.72" x2="19.71" y2="18.72" xlink:href="#linear-gradient-4"/></defs><path class="cls-1" d="M21.11,12.45c-.85,4.23-3.42,7.81-7.64,7.81S5.28,16.83,5,13.19c-.37-4.3,3.28-7.08,6.32-8.12C14.75,3.89,22.34,6.28,21.11,12.45Z"/><polygon class="cls-2" points="4.97 13.53 9.26 21.35 21.19 16.85 21.52 10.58 4.97 13.53"/><path class="cls-3" d="M21.67,4.24a1.36,1.36,0,0,0-.9,1.69,1.52,1.52,0,0,0,.5.79.55.55,0,0,0-.45.14c-4.26,3.93-7.56,1-9.09-1A1.7,1.7,0,0,0,12.67,4a1.73,1.73,0,1,0-2,2.11s0,0,0,.06A7,7,0,0,1,4.53,12a1.24,1.24,0,0,0,.09-.76,1.41,1.41,0,0,0-1.75-.94,1.4,1.4,0,0,0-1.12,1.63,1.4,1.4,0,0,0,1.75.93,1.22,1.22,0,0,0,.17-.07A.58.58,0,0,0,3.8,13a31.15,31.15,0,0,1,3.26,5.2.61.61,0,0,0,1,.05c3.78-5.67,10.17-4.41,12.72-3.61A.61.61,0,0,0,21.6,14a27.68,27.68,0,0,1,.22-6.59.6.6,0,0,0-.1-.4,1.09,1.09,0,0,0,.62,0,1.37,1.37,0,0,0,.9-1.7A1.35,1.35,0,0,0,21.67,4.24Z"/><path class="cls-4" d="M8.4,19.71s3.54-6.5,12.71-3.84l-.08,3L9.71,22.12Z"/><path class="cls-5" d="M16.78,8.79a5.28,5.28,0,0,1-3.4-1.26c-1,1.15-2,2.29-3,3.45-1.56,1.58-3.08,3.21-4.56,4.87.52.88,1,1.73,1.31,2.36a.61.61,0,0,0,.55.31l.19.33L16,9.59Z"/><path class="cls-6" d="M13.68,15.42c-.17,0-.35.05-.53.06-1.46,1.66-2.93,3.33-4.42,5l.53.91q2.67-2.93,5.27-5.91l-.62,0A.4.4,0,0,1,13.68,15.42Z"/><path class="cls-7" d="M22.61,4.38c-.53.66-1.07,1.3-1.6,2a1.52,1.52,0,0,0,.32.39.56.56,0,0,0-.45.14,9.87,9.87,0,0,1-.93.75Q17.11,11,14.2,14.36l1.55-.26c1-1.15,2-2.29,3-3.44,1.53-1.81,3-3.65,4.53-5.49A1.58,1.58,0,0,0,22.61,4.38Z"/><path class="cls-8" d="M20.49,15.52H20.4c-1,1.39-2.1,2.77-3.17,4.14l1.69-.55c.75-1,1.5-1.93,2.23-2.9l0-.42a3.94,3.94,0,0,0-.49-.14A.49.49,0,0,1,20.49,15.52Z"/><path class="cls-2" d="M17.35,17.05,15,16.83a.27.27,0,0,0-.22.08l-1.65,1.71a.25.25,0,0,1-.42-.1l-.37-2.18a.18.18,0,0,0-.13-.16L10,15.33a.22.22,0,0,1,0-.4l2.13-1.13a.28.28,0,0,0,.14-.18l.32-2.23a.26.26,0,0,1,.41-.16l1.69,1.49a.28.28,0,0,0,.22,0l2.35-.54a.22.22,0,0,1,.26.31l-1.09,2.05a.2.2,0,0,0,0,.21l1.14,1.9A.25.25,0,0,1,17.35,17.05Z"/><g class="cls-9"><path class="cls-10" d="M12.17,13.8a.28.28,0,0,0,.14-.18l.31-2.2a.24.24,0,0,0-.22.2l-.32,2.23Z"/><path class="cls-10" d="M12.7,18.52l-.37-2.18a.18.18,0,0,0-.13-.16L10,15.33a.21.21,0,0,1-.13-.23l-.1.06a.22.22,0,0,0,0,.41l2.16.84a.25.25,0,0,1,.14.16l.36,2.18a.24.24,0,0,0,.42.1l.22-.23A.24.24,0,0,1,12.7,18.52Z"/><path class="cls-10" d="M17.35,17.05,15,16.83a.27.27,0,0,0-.22.08l-.22.23a.25.25,0,0,1,.21-.08l2.37.22A.25.25,0,0,0,17.4,17Z"/></g></svg>