<svg id="Layer_1" data-name="Layer 1" xmlns="http://www.w3.org/2000/svg" xmlns:xlink="http://www.w3.org/1999/xlink" viewBox="0 0 25 25"><defs><style>.cls-1,.cls-2,.cls-3{stroke:#be1e2d;stroke-miterlimit:10;stroke-width:0.54px;}.cls-1{fill:url(#linear-gradient);}.cls-2{fill:url(#linear-gradient-2);}.cls-3{fill:url(#linear-gradient-3);}.cls-4{fill:url(#linear-gradient-4);}.cls-5{fill:url(#linear-gradient-5);}.cls-6{fill:url(#linear-gradient-6);}.cls-7{fill:url(#linear-gradient-7);}.cls-8{fill:url(#linear-gradient-8);}.cls-9{opacity:0.65;}.cls-10{fill:url(#linear-gradient-9);}.cls-11{fill:url(#linear-gradient-10);}.cls-12{fill:url(#linear-gradient-11);}.cls-13{fill:#231f20;}</style><linearGradient id="linear-gradient" x1="10.91" y1="2.5" x2="18.98" y2="22.73" gradientTransform="translate(-2.22 3.05) rotate(-13.6)" gradientUnits="userSpaceOnUse"><stop offset="0" stop-color="#f04e36"/><stop offset="0.01" stop-color="#ee4d35"/><stop offset="0.26" stop-color="#b13119"/><stop offset="0.44" stop-color="#8b1f07"/><stop offset="0.54" stop-color="#7d1800"/></linearGradient><linearGradient id="linear-gradient-2" x1="3.91" y1="29.39" x2="13.5" y2="14.12" xlink:href="#linear-gradient"/><linearGradient id="linear-gradient-3" x1="12.84" y1="25.31" x2="12.23" y2="0.03" gradientTransform="matrix(1, 0, 0, 1, 0, 0)" xlink:href="#linear-gradient"/><linearGradient id="linear-gradient-4" x1="5.29" y1="19.22" x2="12.82" y2="19.22" gradientUnits="userSpaceOnUse"><stop offset="0" stop-color="#fff33b"/><stop offset="0.13" stop-color="#fee72e"/><stop offset="0.37" stop-color="#fed51b"/><stop offset="0.63" stop-color="#fdca10"/><stop offset="0.89" stop-color="#fdc70c"/></linearGradient><linearGradient id="linear-gradient-5" x1="12.33" y1="19.59" x2="18.04" y2="19.59" xlink:href="#linear-gradient-4"/><linearGradient id="linear-gradient-6" x1="5.24" y1="18.31" x2="11.5" y2="18.31" xlink:href="#linear-gradient-4"/><linearGradient id="linear-gradient-7" x1="13.63" y1="18.79" x2="18.58" y2="18.79" xlink:href="#linear-gradient-4"/><linearGradient id="linear-gradient-8" x1="0.87" y1="14.62" x2="24.16" y2="14.62" xlink:href="#linear-gradient-4"/><linearGradient id="linear-gradient-9" x1="22.96" y1="8.94" x2="7.66" y2="23.5" gradientUnits="userSpaceOnUse"><stop offset="0" stop-color="#fffdeb"/><stop offset="1" stop-color="#fff" stop-opacity="0"/></linearGradient><linearGradient id="linear-gradient-10" x1="23.38" y1="12.75" x2="10.86" y2="24.67" xlink:href="#linear-gradient-9"/><linearGradient id="linear-gradient-11" x1="17.1" y1="0.1" x2="1.21" y2="15.23" xlink:href="#linear-gradient-9"/></defs><path class="cls-1" d="M19.6,2.62a1.2,1.2,0,0,0-.8,1.5,1.31,1.31,0,0,0,.44.69.5.5,0,0,0-.4.12c-3.76,3.48-6.67.91-8-.84a1.52,1.52,0,0,0,.84-1.72,1.53,1.53,0,1,0-3,.73A1.52,1.52,0,0,0,9.88,4.24s0,0,0,0a6.15,6.15,0,0,1-5.4,5.15,1,1,0,0,0,.08-.67A1.24,1.24,0,0,0,3,7.94,1.24,1.24,0,0,0,2,9.38a1.24,1.24,0,0,0,1.54.83l.15-.07a.47.47,0,0,0,.12.23A27.38,27.38,0,0,1,6.69,15a.53.53,0,0,0,.91,0c3.35-5,9-3.89,11.25-3.19a.53.53,0,0,0,.68-.6,25,25,0,0,1,.2-5.83.44.44,0,0,0-.09-.34,1,1,0,0,0,.55,0A1.19,1.19,0,0,0,21,3.59,1.19,1.19,0,0,0,19.6,2.62Z"/><path class="cls-2" d="M7.87,16.29S11,10.54,19.1,12.9L19,15.54,9,18.42Z"/><path class="cls-3" d="M2.44,13.35a6.13,6.13,0,0,1-.86,0A11.11,11.11,0,0,0,12.52,23.8a11.13,11.13,0,0,0,11-11A25.39,25.39,0,0,1,2.44,13.35Z"/><path class="cls-4" d="M5.27,15.07a20.59,20.59,0,0,0,7,8.83c.56.41,1.09-.52.54-.92a19.35,19.35,0,0,1-6.46-8.19c-.26-.64-1.3-.36-1,.28Z"/><path class="cls-5" d="M13.12,24.08A20.28,20.28,0,0,0,18,15.63a.56.56,0,0,0-1.08-.3,19,19,0,0,1-4.63,8c-.49.52.3,1.31.79.79Z"/><path class="cls-6" d="M6,21.11a24.91,24.91,0,0,1,5.45-4.74c.58-.38,0-1.31-.54-.93a26.1,26.1,0,0,0-5.67,4.92.54.54,0,0,0,0,.75.54.54,0,0,0,.76,0Z"/><path class="cls-7" d="M13.67,16.17a48.54,48.54,0,0,1,4,5.88.53.53,0,0,0,.92-.54,47.63,47.63,0,0,0-4.14-6.09.54.54,0,0,0-.76,0,.54.54,0,0,0,0,.75Z"/><path class="cls-8" d="M2.4,13.36A5.53,5.53,0,0,1,1,13.24c.17.72.52,1.22.93,1.22,0,0,12.64,5.05,21.2,0a2.27,2.27,0,0,0,1-1.93A25.42,25.42,0,0,1,2.4,13.36Z"/><g class="cls-9"><path class="cls-10" d="M13,15.39c-2.65,1.8-5.27,3.62-7.87,5.49a11,11,0,0,0,2.51,1.76c5.39-3.41,10.77-6.83,16.42-9.8,0-.09,0-.21,0-.31A25,25,0,0,1,13,15.39Z"/><path class="cls-11" d="M9.66,23.41a12.06,12.06,0,0,0,1.61.31q6-4,11.87-8.33c.09-.37.18-.76.24-1.14a2.16,2.16,0,0,0,.58-.89Q17,18.6,9.66,23.41Z"/><path class="cls-12" d="M1,13.24a1.65,1.65,0,0,0,.71,1.18,11.87,11.87,0,0,0,.46,1.8l2.43-2a20.56,20.56,0,0,1-2.18-.86A5.49,5.49,0,0,1,1,13.24Z"/></g><path class="cls-13" d="M23.32,11.7A18,18,0,0,1,13,14.36a43.6,43.6,0,0,1-6-.55A14.94,14.94,0,0,1,1.7,12.4a.57.57,0,0,0-.57,1,15.21,15.21,0,0,0,5.38,1.5A46.75,46.75,0,0,0,13,15.5a19.06,19.06,0,0,0,10.91-2.81C24.5,12.28,23.93,11.29,23.32,11.7Z"/></svg>