<svg id="Layer_1" data-name="Layer 1" xmlns="http://www.w3.org/2000/svg" xmlns:xlink="http://www.w3.org/1999/xlink" viewBox="0 0 25 25"><defs><style>.cls-1{stroke:#fbac26;fill:url(#linear-gradient);}.cls-1,.cls-2,.cls-3{stroke-miterlimit:10;}.cls-2,.cls-3{stroke:#27aae1;stroke-width:0.58px;}.cls-2{fill:url(#linear-gradient-2);}.cls-3{fill:url(#linear-gradient-3);}.cls-4,.cls-5,.cls-6,.cls-7{opacity:0.31;}.cls-4{fill:url(#linear-gradient-4);}.cls-5{fill:url(#linear-gradient-5);}.cls-6{fill:url(#linear-gradient-6);}.cls-7{fill:url(#linear-gradient-7);}</style><linearGradient id="linear-gradient" x1="8.58" y1="3.65" x2="21.32" y2="28.63" gradientUnits="userSpaceOnUse"><stop offset="0" stop-color="#fff33b"/><stop offset="0.04" stop-color="#fee72e"/><stop offset="0.12" stop-color="#fed51b"/><stop offset="0.2" stop-color="#fdca10"/><stop offset="0.28" stop-color="#fdc70c"/><stop offset="0.87" stop-color="#f3903f"/></linearGradient><linearGradient id="linear-gradient-2" x1="11" y1="4.05" x2="20.12" y2="26.95" gradientTransform="translate(-2.22 3.05) rotate(-13.6)" gradientUnits="userSpaceOnUse"><stop offset="0" stop-color="#0074a5"/><stop offset="0.17" stop-color="#1993c2"/><stop offset="0.41" stop-color="#37b9e6"/><stop offset="0.54" stop-color="#42c7f4"/></linearGradient><linearGradient id="linear-gradient-3" x1="3.07" y1="34.48" x2="13.93" y2="17.2" xlink:href="#linear-gradient-2"/><linearGradient id="linear-gradient-4" x1="9.56" y1="9.19" x2="13.01" y2="15.95" gradientUnits="userSpaceOnUse"><stop offset="0" stop-color="#fffdeb"/><stop offset="1" stop-color="#fff" stop-opacity="0"/></linearGradient><linearGradient id="linear-gradient-5" x1="8.17" y1="11.42" x2="12.3" y2="19.52" xlink:href="#linear-gradient-4"/><linearGradient id="linear-gradient-6" x1="17.12" y1="6.89" x2="21.25" y2="14.98" xlink:href="#linear-gradient-4"/><linearGradient id="linear-gradient-7" x1="17.95" y1="15.55" x2="19.48" y2="18.54" xlink:href="#linear-gradient-4"/></defs><ellipse class="cls-1" cx="13.1" cy="12.52" rx="10.41" ry="10.02"/><path class="cls-2" d="M21.44,4.07a1.36,1.36,0,0,0-.9,1.69,1.52,1.52,0,0,0,.5.79.57.57,0,0,0-.45.13c-4.26,3.94-7.56,1-9.09-.95a1.7,1.7,0,0,0,.94-1.94,1.73,1.73,0,1,0-2,2.11s0,0,0,.06A7,7,0,0,1,4.3,11.78,1.16,1.16,0,0,0,4.39,11a1.4,1.4,0,0,0-1.74-.93,1.4,1.4,0,0,0-1.13,1.63,1.4,1.4,0,0,0,1.75.93,1.22,1.22,0,0,0,.17-.07.58.58,0,0,0,.13.26A30.45,30.45,0,0,1,6.83,18a.61.61,0,0,0,1,.06c3.78-5.67,10.17-4.41,12.72-3.61a.61.61,0,0,0,.78-.68,28.21,28.21,0,0,1,.22-6.59.59.59,0,0,0-.1-.4,1.09,1.09,0,0,0,.62.05,1.36,1.36,0,0,0,.9-1.7A1.35,1.35,0,0,0,21.44,4.07Z"/><path class="cls-3" d="M8.17,19.53S11.71,13,20.88,15.7l-.08,3L9.48,22Z"/><path class="cls-4" d="M16.55,8.62a5.3,5.3,0,0,1-3.4-1.26c-1,1.14-2,2.29-3,3.44q-2.34,2.38-4.56,4.88c.52.88,1,1.73,1.31,2.35a.6.6,0,0,0,.55.32l.19.33,8.14-9.27C16,9.15,16.3,8.89,16.55,8.62Z"/><path class="cls-5" d="M13.46,15.25l-.54.06C11.46,17,10,18.64,8.5,20.27l.53.91c1.78-1.95,3.54-3.93,5.28-5.91l-.63,0A.37.37,0,0,1,13.46,15.25Z"/><path class="cls-6" d="M22.38,4.21l-1.6,2a1.76,1.76,0,0,0,.32.39.6.6,0,0,0-.45.13,8.87,8.87,0,0,1-.93.76Q16.88,10.85,14,14.19l1.55-.26c1-1.15,2-2.29,3-3.44C20,8.67,21.52,6.84,23,5A1.45,1.45,0,0,0,22.38,4.21Z"/><path class="cls-7" d="M20.27,15.35h-.09c-1.06,1.39-2.11,2.77-3.18,4.14L18.69,19c.75-1,1.5-1.93,2.23-2.9l0-.43-.5-.14A.34.34,0,0,1,20.27,15.35Z"/></svg>