<svg id="Layer_1" data-name="Layer 1" xmlns="http://www.w3.org/2000/svg" xmlns:xlink="http://www.w3.org/1999/xlink" viewBox="0 0 25 25"><defs><style>.cls-1{stroke:#27aae1;stroke-width:0.58px;fill:url(#linear-gradient);}.cls-1,.cls-2,.cls-3{stroke-miterlimit:10;}.cls-2,.cls-3{stroke:#be1e2d;stroke-width:0.61px;}.cls-2{fill:url(#linear-gradient-2);}.cls-3{fill:url(#linear-gradient-3);}.cls-4,.cls-5,.cls-6,.cls-7{opacity:0.31;}.cls-4{fill:url(#linear-gradient-4);}.cls-5{fill:url(#linear-gradient-5);}.cls-6{fill:url(#linear-gradient-6);}.cls-7{fill:url(#linear-gradient-7);}</style><linearGradient id="linear-gradient" x1="8.59" y1="3.69" x2="21.33" y2="28.67" gradientUnits="userSpaceOnUse"><stop offset="0" stop-color="#0074a5"/><stop offset="0.17" stop-color="#1993c2"/><stop offset="0.41" stop-color="#37b9e6"/><stop offset="0.54" stop-color="#42c7f4"/></linearGradient><linearGradient id="linear-gradient-2" x1="11" y1="4.02" x2="20.12" y2="26.91" gradientTransform="translate(-2.22 3.05) rotate(-13.6)" gradientUnits="userSpaceOnUse"><stop offset="0" stop-color="#f04e36"/><stop offset="0.01" stop-color="#ee4d35"/><stop offset="0.26" stop-color="#b13119"/><stop offset="0.44" stop-color="#8b1f07"/><stop offset="0.54" stop-color="#7d1800"/></linearGradient><linearGradient id="linear-gradient-3" x1="3.07" y1="34.45" x2="13.93" y2="17.16" xlink:href="#linear-gradient-2"/><linearGradient id="linear-gradient-4" x1="9.56" y1="9.16" x2="13" y2="15.92" gradientUnits="userSpaceOnUse"><stop offset="0" stop-color="#fffdeb"/><stop offset="1" stop-color="#fff" stop-opacity="0"/></linearGradient><linearGradient id="linear-gradient-5" x1="8.16" y1="11.39" x2="12.29" y2="19.48" xlink:href="#linear-gradient-4"/><linearGradient id="linear-gradient-6" x1="17.12" y1="6.86" x2="21.24" y2="14.95" xlink:href="#linear-gradient-4"/><linearGradient id="linear-gradient-7" x1="17.95" y1="15.52" x2="19.48" y2="18.51" xlink:href="#linear-gradient-4"/></defs><ellipse class="cls-1" cx="13.11" cy="12.55" rx="10.41" ry="10.02"/><path class="cls-2" d="M21.43,4a1.36,1.36,0,0,0-.89,1.7,1.51,1.51,0,0,0,.49.79.56.56,0,0,0-.45.13c-4.26,3.94-7.55,1-9.09-1a1.72,1.72,0,0,0,.95-1.94,1.74,1.74,0,1,0-2,2.11s0,0,0,.06a7,7,0,0,1-6.12,5.82,1.18,1.18,0,0,0,.1-.76,1.41,1.41,0,0,0-1.75-.93,1.41,1.41,0,0,0-1.13,1.63,1.42,1.42,0,0,0,1.75.93.65.65,0,0,0,.17-.08.68.68,0,0,0,.13.27A30.53,30.53,0,0,1,6.83,18a.6.6,0,0,0,1,.06c3.78-5.67,10.18-4.41,12.73-3.62a.6.6,0,0,0,.77-.68,28.68,28.68,0,0,1,.22-6.58.54.54,0,0,0-.1-.4,1,1,0,0,0,.63,0A1.35,1.35,0,0,0,23,5.13,1.36,1.36,0,0,0,21.43,4Z"/><path class="cls-3" d="M8.16,19.5S11.7,13,20.87,15.67l-.07,3L9.48,21.92Z"/><path class="cls-4" d="M16.55,8.59a5.28,5.28,0,0,1-3.4-1.26c-1,1.14-2,2.28-3,3.44C8.58,12.36,7.06,14,5.58,15.65c.53.87,1,1.73,1.31,2.35a.61.61,0,0,0,.55.32l.2.33,8.14-9.27Z"/><path class="cls-5" d="M13.45,15.22l-.54,0c-1.46,1.67-2.92,3.33-4.41,5l.53.91c1.78-1.95,3.53-3.93,5.27-5.92l-.62,0A.38.38,0,0,1,13.45,15.22Z"/><path class="cls-6" d="M22.38,4.18l-1.61,2a1.55,1.55,0,0,0,.33.39.54.54,0,0,0-.45.13,11.56,11.56,0,0,1-.93.76q-2.84,3.4-5.75,6.75l1.55-.27c1-1.14,2-2.28,3-3.44Q20.78,7.74,23,5A1.48,1.48,0,0,0,22.38,4.18Z"/><path class="cls-7" d="M20.26,15.32h-.09c-1.05,1.38-2.1,2.77-3.18,4.14l1.7-.56c.75-1,1.49-1.92,2.23-2.89l0-.43a3.94,3.94,0,0,0-.49-.14A.42.42,0,0,1,20.26,15.32Z"/></svg>