<svg id="Layer_1" data-name="Layer 1" xmlns="http://www.w3.org/2000/svg" xmlns:xlink="http://www.w3.org/1999/xlink" viewBox="0 0 25 25"><defs><style>.cls-1,.cls-2{stroke:#be1e2d;stroke-miterlimit:10;stroke-width:0.61px;}.cls-1{fill:url(#linear-gradient);}.cls-2{fill:url(#linear-gradient-2);}.cls-3,.cls-4,.cls-5,.cls-6{opacity:0.31;}.cls-3{fill:url(#linear-gradient-3);}.cls-4{fill:url(#linear-gradient-4);}.cls-5{fill:url(#linear-gradient-5);}.cls-6{fill:url(#linear-gradient-6);}</style><linearGradient id="linear-gradient" x1="11.15" y1="4.39" x2="20.28" y2="27.29" gradientTransform="translate(-2.22 3.05) rotate(-13.6)" gradientUnits="userSpaceOnUse"><stop offset="0" stop-color="#f04e36"/><stop offset="0.01" stop-color="#ee4d35"/><stop offset="0.26" stop-color="#b13119"/><stop offset="0.44" stop-color="#8b1f07"/><stop offset="0.54" stop-color="#7d1800"/></linearGradient><linearGradient id="linear-gradient-2" x1="3.22" y1="34.82" x2="14.08" y2="17.54" xlink:href="#linear-gradient"/><linearGradient id="linear-gradient-3" x1="9.79" y1="9.48" x2="13.24" y2="16.24" gradientUnits="userSpaceOnUse"><stop offset="0" stop-color="#fffdeb"/><stop offset="1" stop-color="#fff" stop-opacity="0"/></linearGradient><linearGradient id="linear-gradient-4" x1="8.4" y1="11.72" x2="12.52" y2="19.81" xlink:href="#linear-gradient-3"/><linearGradient id="linear-gradient-5" x1="17.35" y1="7.19" x2="21.48" y2="15.28" xlink:href="#linear-gradient-3"/><linearGradient id="linear-gradient-6" x1="18.18" y1="15.84" x2="19.71" y2="18.84" xlink:href="#linear-gradient-3"/></defs><path class="cls-1" d="M21.67,4.36a1.37,1.37,0,0,0-.9,1.69,1.55,1.55,0,0,0,.5.8.51.51,0,0,0-.45.13c-4.26,3.93-7.56,1-9.09-1a1.7,1.7,0,0,0,.94-1.94,1.73,1.73,0,1,0-2,2.11s0,0,0,.06a7,7,0,0,1-6.11,5.83,1.24,1.24,0,0,0,.09-.76,1.41,1.41,0,0,0-1.75-.94A1.41,1.41,0,0,0,1.75,12,1.41,1.41,0,0,0,3.5,13l.17-.08a.61.61,0,0,0,.13.27,30.69,30.69,0,0,1,3.26,5.19.61.61,0,0,0,1,.06c3.78-5.68,10.17-4.41,12.72-3.62a.6.6,0,0,0,.78-.68,27.69,27.69,0,0,1,.22-6.59.57.57,0,0,0-.1-.39,1.19,1.19,0,0,0,.62,0,1.36,1.36,0,0,0,.9-1.69A1.37,1.37,0,0,0,21.67,4.36Z"/><path class="cls-2" d="M8.4,19.83s3.54-6.5,12.71-3.84L21,19,9.71,22.24Z"/><path class="cls-3" d="M16.78,8.92a5.24,5.24,0,0,1-3.4-1.27c-1,1.15-2,2.29-3,3.45C8.82,12.68,7.3,14.31,5.82,16c.52.88,1,1.74,1.31,2.36a.57.57,0,0,0,.55.31l.19.34L16,9.71Z"/><path class="cls-4" d="M13.68,15.55l-.53,0q-2.19,2.51-4.42,5l.53.9q2.67-2.92,5.27-5.91c-.2,0-.41,0-.62,0A.4.4,0,0,1,13.68,15.55Z"/><path class="cls-5" d="M22.61,4.51,21,6.45a1.57,1.57,0,0,0,.32.4.52.52,0,0,0-.45.13,9.87,9.87,0,0,1-.93.75q-2.84,3.42-5.75,6.76c.52-.08,1-.18,1.55-.27,1-1.14,2-2.28,3-3.44,1.53-1.81,3-3.64,4.53-5.48A1.5,1.5,0,0,0,22.61,4.51Z"/><path class="cls-6" d="M20.49,15.65H20.4c-1,1.38-2.1,2.77-3.17,4.13l1.69-.55c.75-1,1.5-1.93,2.23-2.9l0-.42a3.94,3.94,0,0,0-.49-.14A.46.46,0,0,1,20.49,15.65Z"/><path class="cls-1" d="M21.67,4.36a1.37,1.37,0,0,0-.9,1.69,1.55,1.55,0,0,0,.5.8.51.51,0,0,0-.45.13c-4.26,3.93-7.56,1-9.09-1a1.7,1.7,0,0,0,.94-1.94,1.73,1.73,0,1,0-2,2.11s0,0,0,.06a7,7,0,0,1-6.11,5.83,1.24,1.24,0,0,0,.09-.76,1.41,1.41,0,0,0-1.75-.94A1.41,1.41,0,0,0,1.75,12,1.41,1.41,0,0,0,3.5,13l.17-.08a.61.61,0,0,0,.13.27,30.69,30.69,0,0,1,3.26,5.19.61.61,0,0,0,1,.06c3.78-5.68,10.17-4.41,12.72-3.62a.6.6,0,0,0,.78-.68,27.69,27.69,0,0,1,.22-6.59.57.57,0,0,0-.1-.39,1.19,1.19,0,0,0,.62,0,1.36,1.36,0,0,0,.9-1.69A1.37,1.37,0,0,0,21.67,4.36Z"/><path class="cls-2" d="M8.4,19.83s3.54-6.5,12.71-3.84L21,19,9.71,22.24Z"/><path class="cls-3" d="M16.78,8.92a5.24,5.24,0,0,1-3.4-1.27c-1,1.15-2,2.29-3,3.45C8.82,12.68,7.3,14.31,5.82,16c.52.88,1,1.74,1.31,2.36a.57.57,0,0,0,.55.31l.19.34L16,9.71Z"/><path class="cls-4" d="M13.68,15.55l-.53,0q-2.19,2.51-4.42,5l.53.9q2.67-2.92,5.27-5.91c-.2,0-.41,0-.62,0A.4.4,0,0,1,13.68,15.55Z"/><path class="cls-5" d="M22.61,4.51,21,6.45a1.57,1.57,0,0,0,.32.4.52.52,0,0,0-.45.13,9.87,9.87,0,0,1-.93.75q-2.84,3.42-5.75,6.76c.52-.08,1-.18,1.55-.27,1-1.14,2-2.28,3-3.44,1.53-1.81,3-3.64,4.53-5.48A1.5,1.5,0,0,0,22.61,4.51Z"/><path class="cls-6" d="M20.49,15.65H20.4c-1,1.38-2.1,2.77-3.17,4.13l1.69-.55c.75-1,1.5-1.93,2.23-2.9l0-.42a3.94,3.94,0,0,0-.49-.14A.46.46,0,0,1,20.49,15.65Z"/></svg>