<svg id="Layer_1" data-name="Layer 1" xmlns="http://www.w3.org/2000/svg" xmlns:xlink="http://www.w3.org/1999/xlink" viewBox="0 0 25 25"><defs><style>.cls-1{stroke:#fbac26;fill:url(#linear-gradient);}.cls-1,.cls-2,.cls-3{stroke-miterlimit:10;}.cls-2,.cls-3{stroke:#be1e2d;stroke-width:0.61px;}.cls-2{fill:url(#linear-gradient-2);}.cls-3{fill:url(#linear-gradient-3);}.cls-4,.cls-5,.cls-6,.cls-7{opacity:0.31;}.cls-4{fill:url(#linear-gradient-4);}.cls-5{fill:url(#linear-gradient-5);}.cls-6{fill:url(#linear-gradient-6);}.cls-7{fill:url(#linear-gradient-7);}</style><linearGradient id="linear-gradient" x1="8.57" y1="3.63" x2="21.31" y2="28.62" gradientUnits="userSpaceOnUse"><stop offset="0" stop-color="#fff33b"/><stop offset="0.04" stop-color="#fee72e"/><stop offset="0.12" stop-color="#fed51b"/><stop offset="0.2" stop-color="#fdca10"/><stop offset="0.28" stop-color="#fdc70c"/><stop offset="0.87" stop-color="#f3903f"/></linearGradient><linearGradient id="linear-gradient-2" x1="10.91" y1="4.45" x2="20.04" y2="27.34" gradientTransform="translate(-2.22 3.05) rotate(-13.6)" gradientUnits="userSpaceOnUse"><stop offset="0" stop-color="#f04e36"/><stop offset="0.01" stop-color="#ee4d35"/><stop offset="0.26" stop-color="#b13119"/><stop offset="0.44" stop-color="#8b1f07"/><stop offset="0.54" stop-color="#7d1800"/></linearGradient><linearGradient id="linear-gradient-3" x1="2.99" y1="34.88" x2="13.84" y2="17.59" xlink:href="#linear-gradient-2"/><linearGradient id="linear-gradient-4" x1="9.57" y1="9.59" x2="13.02" y2="16.35" gradientUnits="userSpaceOnUse"><stop offset="0" stop-color="#fffdeb"/><stop offset="1" stop-color="#fff" stop-opacity="0"/></linearGradient><linearGradient id="linear-gradient-5" x1="8.18" y1="11.83" x2="12.31" y2="19.92" xlink:href="#linear-gradient-4"/><linearGradient id="linear-gradient-6" x1="17.14" y1="7.3" x2="21.26" y2="15.39" xlink:href="#linear-gradient-4"/><linearGradient id="linear-gradient-7" x1="17.97" y1="15.95" x2="19.49" y2="18.95" xlink:href="#linear-gradient-4"/></defs><ellipse class="cls-1" cx="13.09" cy="12.5" rx="10.41" ry="10.02"/><path class="cls-2" d="M21.45,4.47a1.37,1.37,0,0,0-.9,1.7,1.52,1.52,0,0,0,.5.79.51.51,0,0,0-.45.13c-4.26,3.93-7.55,1-9.09-1a1.72,1.72,0,0,0,1-1.94,1.74,1.74,0,1,0-2,2.11s0,0,0,.07a7,7,0,0,1-6.12,5.82,1.17,1.17,0,0,0,.09-.76,1.4,1.4,0,0,0-1.74-.94,1.42,1.42,0,0,0-1.13,1.63,1.41,1.41,0,0,0,1.75.94L3.45,13a.57.57,0,0,0,.13.27,30.15,30.15,0,0,1,3.27,5.19.6.6,0,0,0,1,.06c3.78-5.68,10.18-4.41,12.73-3.62a.6.6,0,0,0,.77-.68,28.78,28.78,0,0,1,.22-6.59.53.53,0,0,0-.1-.39,1.22,1.22,0,0,0,.63,0A1.35,1.35,0,0,0,23,5.57,1.36,1.36,0,0,0,21.45,4.47Z"/><path class="cls-3" d="M8.18,19.94s3.54-6.5,12.71-3.84l-.07,3L9.49,22.35Z"/><path class="cls-4" d="M16.56,9a5.23,5.23,0,0,1-3.39-1.27c-1,1.15-2,2.29-3,3.45Q7.82,13.6,5.6,16.08c.52.88,1,1.74,1.31,2.36a.57.57,0,0,0,.55.31l.19.34,8.14-9.27Z"/><path class="cls-5" d="M13.47,15.66l-.54.05c-1.46,1.67-2.92,3.33-4.41,5l.52.9q2.67-2.92,5.28-5.91c-.21,0-.42,0-.62.05A.38.38,0,0,1,13.47,15.66Z"/><path class="cls-6" d="M22.39,4.62l-1.6,1.94a1.82,1.82,0,0,0,.32.4.52.52,0,0,0-.45.13,9.8,9.8,0,0,1-.92.75c-1.89,2.28-3.82,4.53-5.76,6.76l1.56-.27c1-1.14,2-2.28,3-3.44Q20.8,8.18,23,5.41A1.42,1.42,0,0,0,22.39,4.62Z"/><path class="cls-7" d="M20.28,15.76h-.09c-1.05,1.38-2.1,2.77-3.18,4.14l1.7-.56,2.23-2.9L21,16c-.17-.05-.33-.11-.49-.14A.42.42,0,0,1,20.28,15.76Z"/></svg>