<svg id="Layer_1" data-name="Layer 1" xmlns="http://www.w3.org/2000/svg" xmlns:xlink="http://www.w3.org/1999/xlink" viewBox="0 0 25 25"><defs><style>.cls-1{stroke:#be1e2d;fill:url(#linear-gradient);}.cls-1,.cls-12{stroke-miterlimit:10;}.cls-1,.cls-11{stroke-width:0.47px;}.cls-2{fill:url(#linear-gradient-2);}.cls-3{fill:url(#linear-gradient-3);}.cls-4{fill:url(#linear-gradient-4);}.cls-5{fill:url(#linear-gradient-5);}.cls-6{fill:url(#linear-gradient-6);}.cls-7{fill:url(#linear-gradient-7);}.cls-8{fill:url(#linear-gradient-8);}.cls-9{fill:url(#linear-gradient-9);}.cls-10{fill:url(#linear-gradient-10);}.cls-11{fill:none;stroke:#231f20;stroke-linecap:round;stroke-linejoin:round;}.cls-12{stroke:#fbac26;stroke-width:0.23px;fill:url(#linear-gradient-11);}.cls-13{opacity:0.65;}.cls-14{fill:url(#linear-gradient-12);}.cls-15{fill:url(#linear-gradient-13);}.cls-16{fill:url(#linear-gradient-14);}.cls-17{fill:url(#linear-gradient-15);}.cls-18{fill:url(#linear-gradient-16);}</style><linearGradient id="linear-gradient" x1="12.79" y1="25.36" x2="12.26" y2="3.25" gradientUnits="userSpaceOnUse"><stop offset="0" stop-color="#f04e36"/><stop offset="0.01" stop-color="#ee4d35"/><stop offset="0.26" stop-color="#b13119"/><stop offset="0.44" stop-color="#8b1f07"/><stop offset="0.54" stop-color="#7d1800"/></linearGradient><linearGradient id="linear-gradient-2" x1="2.93" y1="9.46" x2="13.39" y2="9.46" gradientUnits="userSpaceOnUse"><stop offset="0" stop-color="#fff33b"/><stop offset="0.13" stop-color="#fee72e"/><stop offset="0.37" stop-color="#fed51b"/><stop offset="0.63" stop-color="#fdca10"/><stop offset="0.89" stop-color="#fdc70c"/></linearGradient><linearGradient id="linear-gradient-3" x1="12.52" y1="9.61" x2="19.46" y2="9.61" xlink:href="#linear-gradient-2"/><linearGradient id="linear-gradient-4" x1="4.77" y1="11.56" x2="10.2" y2="11.56" xlink:href="#linear-gradient-2"/><linearGradient id="linear-gradient-5" x1="9.64" y1="11.48" x2="19.92" y2="11.48" xlink:href="#linear-gradient-2"/><linearGradient id="linear-gradient-6" x1="5.99" y1="19.77" x2="12.78" y2="19.77" xlink:href="#linear-gradient-2"/><linearGradient id="linear-gradient-7" x1="12.35" y1="20.1" x2="17.49" y2="20.1" xlink:href="#linear-gradient-2"/><linearGradient id="linear-gradient-8" x1="6.15" y1="18.8" x2="13.14" y2="18.8" xlink:href="#linear-gradient-2"/><linearGradient id="linear-gradient-9" x1="12.69" y1="19.15" x2="17.82" y2="19.15" xlink:href="#linear-gradient-2"/><linearGradient id="linear-gradient-10" x1="2.31" y1="14.91" x2="22.69" y2="14.91" xlink:href="#linear-gradient-2"/><linearGradient id="linear-gradient-11" x1="8.7" y1="3" x2="17.14" y2="3" gradientUnits="userSpaceOnUse"><stop offset="0" stop-color="#fff33b"/><stop offset="0.04" stop-color="#fee72e"/><stop offset="0.12" stop-color="#fed51b"/><stop offset="0.2" stop-color="#fdca10"/><stop offset="0.28" stop-color="#fdc70c"/><stop offset="0.87" stop-color="#f3903f"/></linearGradient><linearGradient id="linear-gradient-12" x1="21.65" y1="11.04" x2="8.27" y2="23.78" gradientUnits="userSpaceOnUse"><stop offset="0" stop-color="#fffdeb"/><stop offset="1" stop-color="#fff" stop-opacity="0"/></linearGradient><linearGradient id="linear-gradient-13" x1="22.02" y1="14.38" x2="11.07" y2="24.8" xlink:href="#linear-gradient-12"/><linearGradient id="linear-gradient-14" x1="16.89" y1="3.7" x2="2.99" y2="16.93" xlink:href="#linear-gradient-12"/><linearGradient id="linear-gradient-15" x1="16.12" y1="0.64" x2="3.58" y2="12.57" xlink:href="#linear-gradient-12"/><linearGradient id="linear-gradient-16" x1="3.09" y1="12.05" x2="2.73" y2="12.39" xlink:href="#linear-gradient-12"/></defs><ellipse class="cls-1" cx="12.52" cy="14.15" rx="9.62" ry="9.89"/><path class="cls-2" d="M3.63,14.61a65,65,0,0,1,9.8-9.68c.48-.38-.19-1-.66-.67A65.6,65.6,0,0,0,3,14c-.38.46.28,1.13.67.66Z"/><path class="cls-3" d="M12.5,4.52a79,79,0,0,1,6.11,10.64c.26.56,1.09.07.83-.49A78.53,78.53,0,0,0,13.33,4c-.34-.51-1.18,0-.83.49Z"/><path class="cls-4" d="M4.76,7.59a23.36,23.36,0,0,0,2.05,4.13c.84,1.4,1.69,2.78,2.53,4.17a.5.5,0,0,0,.86-.5c-.82-1.35-1.64-2.69-2.45-4a22.37,22.37,0,0,1-2-4c-.21-.6-1.18-.34-1,.27Z"/><path class="cls-5" d="M10.31,15.86q4.89-3.94,9.64-8c.49-.42-.22-1.13-.71-.71q-4.75,4.1-9.64,8.05c-.5.41.21,1.11.71.71Z"/><path class="cls-6" d="M6,15.89a17.79,17.79,0,0,0,6.28,8.24c.49.36,1-.45.48-.81a16.66,16.66,0,0,1-5.85-7.68c-.21-.56-1.11-.32-.91.25Z"/><path class="cls-7" d="M13.05,24.29a17.7,17.7,0,0,0,4.43-7.93c.15-.61-.79-.87-.94-.26a16.67,16.67,0,0,1-4.18,7.5c-.44.45.25,1.14.69.69Z"/><path class="cls-8" d="M6.84,21.69a22.18,22.18,0,0,1,6.32-5.07c.53-.28.05-1.09-.48-.81A23,23,0,0,0,6.18,21c-.39.46.27,1.12.66.66Z"/><path class="cls-9" d="M12.72,16.38A41.29,41.29,0,0,1,17,22.51a.47.47,0,0,0,.81-.47,42.68,42.68,0,0,0-4.43-6.32c-.39-.46-1.05.2-.66.66Z"/><path class="cls-10" d="M21.78,15.87c-7.5,4.42-18.56,0-18.56,0-.5,0-.91-.86-.91-1.91h0c0-1.05.41-1.91.91-1.91,0,0,10.15,5.78,18.56,0,.47-.33.91.86.91,1.91h0A2,2,0,0,1,21.78,15.87Z"/><path class="cls-11" d="M2.5,13.36s9.67,6.28,19.89.27"/><path class="cls-12" d="M8.7,1.42l1.35,3.33s1.67-1.16,5.73.29l1.36-3.56-2.36,1L12.57,1,10.79,2.4Z"/><g class="cls-13"><path class="cls-14" d="M8.28,23c4.72-3,9.43-6,14.37-8.57a3.9,3.9,0,0,0,0-.5c0-1-.36-2-.78-2a8.07,8.07,0,0,0-.29-1Q13.7,16,6.09,21.49A9.61,9.61,0,0,0,8.28,23Z"/><path class="cls-15" d="M10,23.7a9.12,9.12,0,0,0,1.4.27q5.28-3.51,10.39-7.28c.08-.33.15-.67.21-1a1.76,1.76,0,0,0,.51-.77Q16.4,19.49,10,23.7Z"/><path class="cls-16" d="M15.84,4.88l.62-1.63c-1.79,1.1-3.54,2.28-5.24,3.51a91.12,91.12,0,0,0-8.88,6.76,3.15,3.15,0,0,0,0,.44c0,.92.32,1.7.73,1.87a10.15,10.15,0,0,0,.4,1.58A126.67,126.67,0,0,1,18.36,6.33,9.56,9.56,0,0,0,15.84,4.88Z"/><path class="cls-17" d="M17,1.55l-2.2,1-.16-.11q-5.59,3.87-11,8a9.72,9.72,0,0,0-.53,1.66q6.67-5.19,13.67-10A.48.48,0,0,0,17,1.55Z"/><path class="cls-18" d="M3.11,12.08a.72.72,0,0,0-.39.3Z"/></g></svg>