<svg id="Layer_1" data-name="Layer 1" xmlns="http://www.w3.org/2000/svg" xmlns:xlink="http://www.w3.org/1999/xlink" viewBox="0 0 17.79 21.42"><defs><style>.cls-1{fill:url(#linear-gradient);}.cls-2{fill:#fbac26;}.cls-3{fill:url(#linear-gradient-2);}.cls-4{fill:url(#linear-gradient-3);}.cls-5{fill:#f47820;}.cls-6{opacity:0.89;}.cls-7{fill:#563219;}</style><linearGradient id="linear-gradient" x1="8.61" y1="3.84" x2="26.49" y2="33.28" gradientUnits="userSpaceOnUse"><stop offset="0" stop-color="#fff33b"/><stop offset="0.04" stop-color="#fee72e"/><stop offset="0.12" stop-color="#fed51b"/><stop offset="0.2" stop-color="#fdca10"/><stop offset="0.28" stop-color="#fdc70c"/><stop offset="0.87" stop-color="#f3903f"/></linearGradient><linearGradient id="linear-gradient-2" x1="19.98" y1="12.42" x2="9.89" y2="20.55" gradientUnits="userSpaceOnUse"><stop offset="0" stop-color="#fffdeb"/><stop offset="1" stop-color="#fff" stop-opacity="0"/></linearGradient><linearGradient id="linear-gradient-3" x1="13.55" y1="5.96" x2="4.64" y2="14.44" xlink:href="#linear-gradient-2"/></defs><path class="cls-1" d="M5,3.87c1.65-.06,5.09-.39,7.33-2a1,1,0,0,1,1.1,0c1.22.78,4.12,2.4,7.1,2.08a1,1,0,0,1,1.07.94l0,12.39a1,1,0,0,1-.37.75c-1.4,1.08-6.35,4.86-7.5,4.86-.85,0-7.25-3.47-9.08-5a1,1,0,0,1-.33-.7L4.06,4.84A1,1,0,0,1,5,3.87Z" transform="translate(-3.94 -1.52)"/><path class="cls-2" d="M5,4A18,18,0,0,0,9.3,3.35a10.34,10.34,0,0,0,2.39-1L12.23,2a1.13,1.13,0,0,1,.6-.27,1.86,1.86,0,0,1,.95.42A12.84,12.84,0,0,0,18.58,4a9.35,9.35,0,0,0,1.49.07,2.75,2.75,0,0,1,.7,0,.84.84,0,0,1,.5.28,1,1,0,0,1,.18.7V17a1.22,1.22,0,0,1-.09.6,1.8,1.8,0,0,1-.56.54l-.6.45c-.5.39-1,.77-1.52,1.14-1.1.8-2.21,1.59-3.38,2.28a6.74,6.74,0,0,1-1.26.63,1,1,0,0,1-.36.07h-.12l-.2-.06a12.1,12.1,0,0,1-1.17-.5c-.56-.26-1.1-.53-1.64-.82C9.33,20.66,8.11,20,6.92,19.24c-.51-.31-1-.63-1.51-1-.18-.13-.37-.26-.55-.41a.88.88,0,0,1-.41-.71c0-.43,0-.86,0-1.29L4.36,13,4.29,9.52l-.07-3,0-1.59A.85.85,0,0,1,5,4c.16,0,.16-.26,0-.25a1.1,1.1,0,0,0-1,1.12c0,.16,0,.33,0,.49l0,2.4.07,3.41.07,3.37.05,2.24c0,.13,0,.25,0,.37a1.11,1.11,0,0,0,.44.86l.56.42c1.07.75,2.21,1.42,3.35,2.07s2.34,1.29,3.55,1.86a12,12,0,0,0,1.22.51,1.13,1.13,0,0,0,.75,0,6.46,6.46,0,0,0,1.27-.61c.57-.33,1.12-.7,1.67-1.07,1.13-.77,2.24-1.58,3.33-2.4l.61-.47a2.79,2.79,0,0,0,.58-.5,1.34,1.34,0,0,0,.19-.8V5.68a2.43,2.43,0,0,0-.24-1.53,1.17,1.17,0,0,0-1.06-.37,7.49,7.49,0,0,1-1.57,0A10.83,10.83,0,0,1,16,3,14.36,14.36,0,0,1,13.88,2,2.2,2.2,0,0,0,13,1.52c-.48,0-.8.28-1.17.51a12.31,12.31,0,0,1-4.9,1.56c-.63.08-1.26.13-1.9.15C4.82,3.75,4.82,4,5,4Z" transform="translate(-3.94 -1.52)"/><path class="cls-3" d="M9.49,18.13c-.72.49-1.44,1-2.15,1.51,1,.61,2.14,1.23,3.17,1.77,3.1-2.08,6.19-4.15,9.27-6.26l1.72-1,0-5c-2.67,1.81-5.16,3.71-7.71,5.68Q11.57,16.41,9.49,18.13Z" transform="translate(-3.94 -1.52)"/><path class="cls-4" d="M4.29,15.67C7.38,13.3,18.8,4.05,18.8,4.05A18.65,18.65,0,0,1,15.24,3c-3.85,2.79-7.46,5.66-11,8.8Z" transform="translate(-3.94 -1.52)"/><path class="cls-5" d="M16.12,17.63l-3-1.64a.35.35,0,0,0-.33,0l-3,1.56a.35.35,0,0,1-.5-.38l.63-3.37a.36.36,0,0,0-.1-.31L7.38,11.05a.35.35,0,0,1,.2-.59L11,10a.33.33,0,0,0,.26-.18l1.56-3.06a.35.35,0,0,1,.62,0l1.47,3.1a.31.31,0,0,0,.25.19l3.37.55a.35.35,0,0,1,.19.6l-2.48,2.35a.4.4,0,0,0-.11.31l.53,3.39A.34.34,0,0,1,16.12,17.63Z" transform="translate(-3.94 -1.52)"/><g class="cls-6"><path class="cls-7" d="M11,10a.33.33,0,0,0,.26-.18l1.54-3a.33.33,0,0,0-.4.16l-1.55,3Z" transform="translate(-3.94 -1.52)"/><path class="cls-7" d="M9.26,17.16l.63-3.37a.36.36,0,0,0-.1-.31L7.38,11.05a.37.37,0,0,1,0-.41l-.16,0a.34.34,0,0,0-.2.59l2.41,2.43a.35.35,0,0,1,.09.31l-.63,3.37a.35.35,0,0,0,.5.38l.41-.21A.35.35,0,0,1,9.26,17.16Z" transform="translate(-3.94 -1.52)"/><path class="cls-7" d="M16.12,17.63l-3-1.64a.35.35,0,0,0-.33,0l-.4.21a.37.37,0,0,1,.31,0l3,1.64a.33.33,0,0,0,.48-.19Z" transform="translate(-3.94 -1.52)"/></g></svg>